STARTFONT 2.1
FONT -t-kiwi-Medium-R-Normal--11-100-75-75-C-100-ISO10646-1
SIZE 10 75 75
FONTBOUNDINGBOX 5 11 0 -2
STARTPROPERTIES 14
POINT_SIZE 100
PIXEL_SIZE 11
RESOLUTION_X 75
RESOLUTION_Y 75
AVERAGE_WIDTH 100
SPACING "C"
CHARSET_ENCODING "1"
CHARSET_REGISTRY "ISO10646"
FOUNDRY "t"
FAMILY_NAME "kiwi"
_GBDFED_INFO "Edited with gbdfed 1.6."
DEFAULT_CHAR 0
FONT_DESCENT 2
FONT_ASCENT 9
ENDPROPERTIES
CHARS 320
STARTCHAR <control>
ENCODING 0
SWIDTH 480 0
DWIDTH 5 0
BBX 5 11 0 -2
BITMAP
00
00
00
00
00
00
00
00
00
00
00
ENDCHAR
STARTCHAR SPACE
ENCODING 32
SWIDTH 480 0
DWIDTH 5 0
BBX 5 11 0 -2
BITMAP
00
00
00
00
00
00
00
00
00
00
00
ENDCHAR
STARTCHAR EXCLAMATION MARK
ENCODING 33
SWIDTH 480 0
DWIDTH 5 0
BBX 5 11 0 -2
BITMAP
00
00
00
20
20
20
00
20
20
00
00
ENDCHAR
STARTCHAR QUOTATION MARK
ENCODING 34
SWIDTH 480 0
DWIDTH 5 0
BBX 5 11 0 -2
BITMAP
00
00
50
50
00
00
00
00
00
00
00
ENDCHAR
STARTCHAR NUMBER SIGN
ENCODING 35
SWIDTH 480 0
DWIDTH 5 0
BBX 5 11 0 -2
BITMAP
00
00
00
50
D8
50
50
D8
50
00
00
ENDCHAR
STARTCHAR DOLLAR SIGN
ENCODING 36
SWIDTH 480 0
DWIDTH 5 0
BBX 5 11 0 -2
BITMAP
00
00
20
70
80
C0
30
10
E0
40
00
ENDCHAR
STARTCHAR PERCENT SIGN
ENCODING 37
SWIDTH 480 0
DWIDTH 5 0
BBX 5 11 0 -2
BITMAP
00
00
00
90
90
20
20
48
48
00
00
ENDCHAR
STARTCHAR AMPERSAND
ENCODING 38
SWIDTH 480 0
DWIDTH 5 0
BBX 5 11 0 -2
BITMAP
00
00
00
60
90
60
98
90
68
00
00
ENDCHAR
STARTCHAR APOSTROPHE
ENCODING 39
SWIDTH 480 0
DWIDTH 5 0
BBX 5 11 0 -2
BITMAP
00
00
20
20
00
00
00
00
00
00
00
ENDCHAR
STARTCHAR LEFT PARENTHESIS
ENCODING 40
SWIDTH 480 0
DWIDTH 5 0
BBX 5 11 0 -2
BITMAP
00
00
30
40
40
40
40
40
40
30
00
ENDCHAR
STARTCHAR RIGHT PARENTHESIS
ENCODING 41
SWIDTH 480 0
DWIDTH 5 0
BBX 5 11 0 -2
BITMAP
00
00
60
10
10
10
10
10
10
60
00
ENDCHAR
STARTCHAR ASTERISK
ENCODING 42
SWIDTH 480 0
DWIDTH 5 0
BBX 5 11 0 -2
BITMAP
00
00
00
00
90
60
F0
60
90
00
00
ENDCHAR
STARTCHAR PLUS SIGN
ENCODING 43
SWIDTH 480 0
DWIDTH 5 0
BBX 5 11 0 -2
BITMAP
00
00
00
00
20
20
F8
20
20
00
00
ENDCHAR
STARTCHAR COMMA
ENCODING 44
SWIDTH 480 0
DWIDTH 5 0
BBX 5 11 0 -2
BITMAP
00
00
00
00
00
00
00
20
20
40
00
ENDCHAR
STARTCHAR HYPHEN-MINUS
ENCODING 45
SWIDTH 480 0
DWIDTH 5 0
BBX 5 11 0 -2
BITMAP
00
00
00
00
00
00
F0
00
00
00
00
ENDCHAR
STARTCHAR FULL STOP
ENCODING 46
SWIDTH 480 0
DWIDTH 5 0
BBX 5 11 0 -2
BITMAP
00
00
00
00
00
00
00
20
20
00
00
ENDCHAR
STARTCHAR SOLIDUS
ENCODING 47
SWIDTH 480 0
DWIDTH 5 0
BBX 5 11 0 -2
BITMAP
00
00
00
10
10
20
20
40
40
00
00
ENDCHAR
STARTCHAR DIGIT ZERO
ENCODING 48
SWIDTH 480 0
DWIDTH 5 0
BBX 5 11 0 -2
BITMAP
00
00
00
60
B0
90
90
90
60
00
00
ENDCHAR
STARTCHAR DIGIT ONE
ENCODING 49
SWIDTH 480 0
DWIDTH 5 0
BBX 5 11 0 -2
BITMAP
00
00
00
20
60
20
20
20
20
00
00
ENDCHAR
STARTCHAR DIGIT TWO
ENCODING 50
SWIDTH 480 0
DWIDTH 5 0
BBX 5 11 0 -2
BITMAP
00
00
00
E0
10
10
60
80
F0
00
00
ENDCHAR
STARTCHAR DIGIT THREE
ENCODING 51
SWIDTH 480 0
DWIDTH 5 0
BBX 5 11 0 -2
BITMAP
00
00
00
E0
10
60
10
10
E0
00
00
ENDCHAR
STARTCHAR DIGIT FOUR
ENCODING 52
SWIDTH 480 0
DWIDTH 5 0
BBX 5 11 0 -2
BITMAP
00
00
00
90
90
90
70
10
10
00
00
ENDCHAR
STARTCHAR DIGIT FIVE
ENCODING 53
SWIDTH 480 0
DWIDTH 5 0
BBX 5 11 0 -2
BITMAP
00
00
00
F0
80
E0
10
10
E0
00
00
ENDCHAR
STARTCHAR DIGIT SIX
ENCODING 54
SWIDTH 480 0
DWIDTH 5 0
BBX 5 11 0 -2
BITMAP
00
00
00
60
80
E0
90
90
60
00
00
ENDCHAR
STARTCHAR DIGIT SEVEN
ENCODING 55
SWIDTH 480 0
DWIDTH 5 0
BBX 5 11 0 -2
BITMAP
00
00
00
F0
10
20
20
40
40
00
00
ENDCHAR
STARTCHAR DIGIT EIGHT
ENCODING 56
SWIDTH 480 0
DWIDTH 5 0
BBX 5 11 0 -2
BITMAP
00
00
00
60
90
60
90
90
60
00
00
ENDCHAR
STARTCHAR DIGIT NINE
ENCODING 57
SWIDTH 480 0
DWIDTH 5 0
BBX 5 11 0 -2
BITMAP
00
00
00
60
90
90
70
10
60
00
00
ENDCHAR
STARTCHAR COLON
ENCODING 58
SWIDTH 480 0
DWIDTH 5 0
BBX 5 11 0 -2
BITMAP
00
00
00
00
20
20
00
20
20
00
00
ENDCHAR
STARTCHAR SEMICOLON
ENCODING 59
SWIDTH 480 0
DWIDTH 5 0
BBX 5 11 0 -2
BITMAP
00
00
00
00
20
20
00
20
20
40
00
ENDCHAR
STARTCHAR LESS-THAN SIGN
ENCODING 60
SWIDTH 480 0
DWIDTH 5 0
BBX 5 11 0 -2
BITMAP
00
00
00
00
10
60
80
60
10
00
00
ENDCHAR
STARTCHAR EQUALS SIGN
ENCODING 61
SWIDTH 480 0
DWIDTH 5 0
BBX 5 11 0 -2
BITMAP
00
00
00
00
00
F0
00
F0
00
00
00
ENDCHAR
STARTCHAR GREATER-THAN SIGN
ENCODING 62
SWIDTH 480 0
DWIDTH 5 0
BBX 5 11 0 -2
BITMAP
00
00
00
00
40
30
08
30
40
00
00
ENDCHAR
STARTCHAR QUESTION MARK
ENCODING 63
SWIDTH 480 0
DWIDTH 5 0
BBX 5 11 0 -2
BITMAP
00
00
00
E0
10
20
40
00
40
00
00
ENDCHAR
STARTCHAR COMMERCIAL AT
ENCODING 64
SWIDTH 480 0
DWIDTH 5 0
BBX 5 11 0 -2
BITMAP
00
00
00
60
90
B0
B0
80
60
00
00
ENDCHAR
STARTCHAR LATIN CAPITAL LETTER A
ENCODING 65
SWIDTH 480 0
DWIDTH 5 0
BBX 5 11 0 -2
BITMAP
00
00
00
60
90
90
F0
90
90
00
00
ENDCHAR
STARTCHAR LATIN CAPITAL LETTER B
ENCODING 66
SWIDTH 480 0
DWIDTH 5 0
BBX 5 11 0 -2
BITMAP
00
00
00
E0
90
E0
90
90
E0
00
00
ENDCHAR
STARTCHAR LATIN CAPITAL LETTER C
ENCODING 67
SWIDTH 480 0
DWIDTH 5 0
BBX 5 11 0 -2
BITMAP
00
00
00
70
80
80
80
80
70
00
00
ENDCHAR
STARTCHAR LATIN CAPITAL LETTER D
ENCODING 68
SWIDTH 480 0
DWIDTH 5 0
BBX 5 11 0 -2
BITMAP
00
00
00
E0
90
90
90
90
E0
00
00
ENDCHAR
STARTCHAR LATIN CAPITAL LETTER E
ENCODING 69
SWIDTH 480 0
DWIDTH 5 0
BBX 5 11 0 -2
BITMAP
00
00
00
F0
80
E0
80
80
F0
00
00
ENDCHAR
STARTCHAR LATIN CAPITAL LETTER F
ENCODING 70
SWIDTH 480 0
DWIDTH 5 0
BBX 5 11 0 -2
BITMAP
00
00
00
F0
80
E0
80
80
80
00
00
ENDCHAR
STARTCHAR LATIN CAPITAL LETTER G
ENCODING 71
SWIDTH 480 0
DWIDTH 5 0
BBX 5 11 0 -2
BITMAP
00
00
00
60
80
B0
90
90
60
00
00
ENDCHAR
STARTCHAR LATIN CAPITAL LETTER H
ENCODING 72
SWIDTH 480 0
DWIDTH 5 0
BBX 5 11 0 -2
BITMAP
00
00
00
90
90
F0
90
90
90
00
00
ENDCHAR
STARTCHAR LATIN CAPITAL LETTER I
ENCODING 73
SWIDTH 480 0
DWIDTH 5 0
BBX 5 11 0 -2
BITMAP
00
00
00
70
20
20
20
20
70
00
00
ENDCHAR
STARTCHAR LATIN CAPITAL LETTER J
ENCODING 74
SWIDTH 480 0
DWIDTH 5 0
BBX 5 11 0 -2
BITMAP
00
00
00
70
10
10
10
10
60
00
00
ENDCHAR
STARTCHAR LATIN CAPITAL LETTER K
ENCODING 75
SWIDTH 480 0
DWIDTH 5 0
BBX 5 11 0 -2
BITMAP
00
00
00
90
A0
C0
C0
A0
90
00
00
ENDCHAR
STARTCHAR LATIN CAPITAL LETTER L
ENCODING 76
SWIDTH 480 0
DWIDTH 5 0
BBX 5 11 0 -2
BITMAP
00
00
00
40
40
40
40
40
70
00
00
ENDCHAR
STARTCHAR LATIN CAPITAL LETTER M
ENCODING 77
SWIDTH 480 0
DWIDTH 5 0
BBX 5 11 0 -2
BITMAP
00
00
00
90
F0
90
90
90
90
00
00
ENDCHAR
STARTCHAR LATIN CAPITAL LETTER N
ENCODING 78
SWIDTH 480 0
DWIDTH 5 0
BBX 5 11 0 -2
BITMAP
00
00
00
90
D0
D0
B0
B0
90
00
00
ENDCHAR
STARTCHAR LATIN CAPITAL LETTER O
ENCODING 79
SWIDTH 480 0
DWIDTH 5 0
BBX 5 11 0 -2
BITMAP
00
00
00
60
90
90
90
90
60
00
00
ENDCHAR
STARTCHAR LATIN CAPITAL LETTER P
ENCODING 80
SWIDTH 480 0
DWIDTH 5 0
BBX 5 11 0 -2
BITMAP
00
00
00
E0
90
90
E0
80
80
00
00
ENDCHAR
STARTCHAR LATIN CAPITAL LETTER Q
ENCODING 81
SWIDTH 480 0
DWIDTH 5 0
BBX 5 11 0 -2
BITMAP
00
00
00
60
90
90
90
90
60
20
10
ENDCHAR
STARTCHAR LATIN CAPITAL LETTER R
ENCODING 82
SWIDTH 480 0
DWIDTH 5 0
BBX 5 11 0 -2
BITMAP
00
00
00
E0
90
90
E0
A0
90
00
00
ENDCHAR
STARTCHAR LATIN CAPITAL LETTER S
ENCODING 83
SWIDTH 480 0
DWIDTH 5 0
BBX 5 11 0 -2
BITMAP
00
00
00
70
80
C0
30
10
E0
00
00
ENDCHAR
STARTCHAR LATIN CAPITAL LETTER T
ENCODING 84
SWIDTH 480 0
DWIDTH 5 0
BBX 5 11 0 -2
BITMAP
00
00
00
70
20
20
20
20
20
00
00
ENDCHAR
STARTCHAR LATIN CAPITAL LETTER U
ENCODING 85
SWIDTH 480 0
DWIDTH 5 0
BBX 5 11 0 -2
BITMAP
00
00
00
90
90
90
90
90
70
00
00
ENDCHAR
STARTCHAR LATIN CAPITAL LETTER V
ENCODING 86
SWIDTH 480 0
DWIDTH 5 0
BBX 5 11 0 -2
BITMAP
00
00
00
90
90
90
60
60
60
00
00
ENDCHAR
STARTCHAR LATIN CAPITAL LETTER W
ENCODING 87
SWIDTH 480 0
DWIDTH 5 0
BBX 5 11 0 -2
BITMAP
00
00
00
90
90
90
90
F0
90
00
00
ENDCHAR
STARTCHAR LATIN CAPITAL LETTER X
ENCODING 88
SWIDTH 480 0
DWIDTH 5 0
BBX 5 11 0 -2
BITMAP
00
00
00
90
60
60
60
60
90
00
00
ENDCHAR
STARTCHAR LATIN CAPITAL LETTER Y
ENCODING 89
SWIDTH 480 0
DWIDTH 5 0
BBX 5 11 0 -2
BITMAP
00
00
00
90
90
90
60
20
20
00
00
ENDCHAR
STARTCHAR LATIN CAPITAL LETTER Z
ENCODING 90
SWIDTH 480 0
DWIDTH 5 0
BBX 5 11 0 -2
BITMAP
00
00
00
F0
20
20
40
40
F0
00
00
ENDCHAR
STARTCHAR LEFT SQUARE BRACKET
ENCODING 91
SWIDTH 480 0
DWIDTH 5 0
BBX 5 11 0 -2
BITMAP
00
00
70
40
40
40
40
40
40
70
00
ENDCHAR
STARTCHAR REVERSE SOLIDUS
ENCODING 92
SWIDTH 480 0
DWIDTH 5 0
BBX 5 11 0 -2
BITMAP
00
00
00
40
40
20
20
10
10
00
00
ENDCHAR
STARTCHAR RIGHT SQUARE BRACKET
ENCODING 93
SWIDTH 480 0
DWIDTH 5 0
BBX 5 11 0 -2
BITMAP
00
00
70
10
10
10
10
10
10
70
00
ENDCHAR
STARTCHAR CIRCUMFLEX ACCENT
ENCODING 94
SWIDTH 480 0
DWIDTH 5 0
BBX 5 11 0 -2
BITMAP
00
00
60
60
90
00
00
00
00
00
00
ENDCHAR
STARTCHAR LOW LINE
ENCODING 95
SWIDTH 480 0
DWIDTH 5 0
BBX 5 11 0 -2
BITMAP
00
00
00
00
00
00
00
00
00
F0
00
ENDCHAR
STARTCHAR GRAVE ACCENT
ENCODING 96
SWIDTH 480 0
DWIDTH 5 0
BBX 5 11 0 -2
BITMAP
00
00
40
40
20
00
00
00
00
00
00
ENDCHAR
STARTCHAR LATIN SMALL LETTER A
ENCODING 97
SWIDTH 480 0
DWIDTH 5 0
BBX 5 11 0 -2
BITMAP
00
00
00
00
70
90
90
90
70
00
00
ENDCHAR
STARTCHAR LATIN SMALL LETTER B
ENCODING 98
SWIDTH 480 0
DWIDTH 5 0
BBX 5 11 0 -2
BITMAP
00
00
80
80
E0
90
90
90
E0
00
00
ENDCHAR
STARTCHAR LATIN SMALL LETTER C
ENCODING 99
SWIDTH 480 0
DWIDTH 5 0
BBX 5 11 0 -2
BITMAP
00
00
00
00
70
80
80
80
70
00
00
ENDCHAR
STARTCHAR LATIN SMALL LETTER D
ENCODING 100
SWIDTH 480 0
DWIDTH 5 0
BBX 5 11 0 -2
BITMAP
00
00
10
10
70
90
90
90
70
00
00
ENDCHAR
STARTCHAR LATIN SMALL LETTER E
ENCODING 101
SWIDTH 480 0
DWIDTH 5 0
BBX 5 11 0 -2
BITMAP
00
00
00
00
60
90
F0
80
70
00
00
ENDCHAR
STARTCHAR LATIN SMALL LETTER F
ENCODING 102
SWIDTH 480 0
DWIDTH 5 0
BBX 5 11 0 -2
BITMAP
00
00
30
40
70
40
40
40
40
00
00
ENDCHAR
STARTCHAR LATIN SMALL LETTER G
ENCODING 103
SWIDTH 480 0
DWIDTH 5 0
BBX 5 11 0 -2
BITMAP
00
00
00
00
70
90
90
90
70
10
60
ENDCHAR
STARTCHAR LATIN SMALL LETTER H
ENCODING 104
SWIDTH 480 0
DWIDTH 5 0
BBX 5 11 0 -2
BITMAP
00
00
80
80
E0
90
90
90
90
00
00
ENDCHAR
STARTCHAR LATIN SMALL LETTER I
ENCODING 105
SWIDTH 480 0
DWIDTH 5 0
BBX 5 11 0 -2
BITMAP
00
20
20
00
60
20
20
20
20
00
00
ENDCHAR
STARTCHAR LATIN SMALL LETTER J
ENCODING 106
SWIDTH 480 0
DWIDTH 5 0
BBX 5 11 0 -2
BITMAP
00
20
20
00
60
20
20
20
20
20
C0
ENDCHAR
STARTCHAR LATIN SMALL LETTER K
ENCODING 107
SWIDTH 480 0
DWIDTH 5 0
BBX 5 11 0 -2
BITMAP
00
00
80
80
90
A0
C0
A0
90
00
00
ENDCHAR
STARTCHAR LATIN SMALL LETTER L
ENCODING 108
SWIDTH 480 0
DWIDTH 5 0
BBX 5 11 0 -2
BITMAP
00
00
60
20
20
20
20
20
20
00
00
ENDCHAR
STARTCHAR LATIN SMALL LETTER M
ENCODING 109
SWIDTH 480 0
DWIDTH 5 0
BBX 5 11 0 -2
BITMAP
00
00
00
00
90
F0
90
90
90
00
00
ENDCHAR
STARTCHAR LATIN SMALL LETTER N
ENCODING 110
SWIDTH 480 0
DWIDTH 5 0
BBX 5 11 0 -2
BITMAP
00
00
00
00
E0
90
90
90
90
00
00
ENDCHAR
STARTCHAR LATIN SMALL LETTER O
ENCODING 111
SWIDTH 480 0
DWIDTH 5 0
BBX 5 11 0 -2
BITMAP
00
00
00
00
60
90
90
90
60
00
00
ENDCHAR
STARTCHAR LATIN SMALL LETTER P
ENCODING 112
SWIDTH 480 0
DWIDTH 5 0
BBX 5 11 0 -2
BITMAP
00
00
00
00
E0
90
90
90
E0
80
80
ENDCHAR
STARTCHAR LATIN SMALL LETTER Q
ENCODING 113
SWIDTH 480 0
DWIDTH 5 0
BBX 5 11 0 -2
BITMAP
00
00
00
00
70
90
90
90
70
10
10
ENDCHAR
STARTCHAR LATIN SMALL LETTER R
ENCODING 114
SWIDTH 480 0
DWIDTH 5 0
BBX 5 11 0 -2
BITMAP
00
00
00
00
B0
C0
80
80
80
00
00
ENDCHAR
STARTCHAR LATIN SMALL LETTER S
ENCODING 115
SWIDTH 480 0
DWIDTH 5 0
BBX 5 11 0 -2
BITMAP
00
00
00
00
70
80
60
10
E0
00
00
ENDCHAR
STARTCHAR LATIN SMALL LETTER T
ENCODING 116
SWIDTH 480 0
DWIDTH 5 0
BBX 5 11 0 -2
BITMAP
00
00
40
40
F0
40
40
40
40
00
00
ENDCHAR
STARTCHAR LATIN SMALL LETTER U
ENCODING 117
SWIDTH 480 0
DWIDTH 5 0
BBX 5 11 0 -2
BITMAP
00
00
00
00
90
90
90
90
70
00
00
ENDCHAR
STARTCHAR LATIN SMALL LETTER V
ENCODING 118
SWIDTH 480 0
DWIDTH 5 0
BBX 5 11 0 -2
BITMAP
00
00
00
00
90
90
90
60
60
00
00
ENDCHAR
STARTCHAR LATIN SMALL LETTER W
ENCODING 119
SWIDTH 480 0
DWIDTH 5 0
BBX 5 11 0 -2
BITMAP
00
00
00
00
90
90
90
F0
90
00
00
ENDCHAR
STARTCHAR LATIN SMALL LETTER X
ENCODING 120
SWIDTH 480 0
DWIDTH 5 0
BBX 5 11 0 -2
BITMAP
00
00
00
00
90
60
60
60
90
00
00
ENDCHAR
STARTCHAR LATIN SMALL LETTER Y
ENCODING 121
SWIDTH 480 0
DWIDTH 5 0
BBX 5 11 0 -2
BITMAP
00
00
00
00
90
90
90
90
70
10
60
ENDCHAR
STARTCHAR LATIN SMALL LETTER Z
ENCODING 122
SWIDTH 480 0
DWIDTH 5 0
BBX 5 11 0 -2
BITMAP
00
00
00
00
F0
20
40
40
F0
00
00
ENDCHAR
STARTCHAR LEFT CURLY BRACKET
ENCODING 123
SWIDTH 480 0
DWIDTH 5 0
BBX 5 11 0 -2
BITMAP
00
00
10
20
20
60
60
20
20
10
00
ENDCHAR
STARTCHAR VERTICAL LINE
ENCODING 124
SWIDTH 480 0
DWIDTH 5 0
BBX 5 11 0 -2
BITMAP
00
00
00
20
20
20
20
20
20
00
00
ENDCHAR
STARTCHAR RIGHT CURLY BRACKET
ENCODING 125
SWIDTH 480 0
DWIDTH 5 0
BBX 5 11 0 -2
BITMAP
00
00
40
20
20
30
30
20
20
40
00
ENDCHAR
STARTCHAR TILDE
ENCODING 126
SWIDTH 480 0
DWIDTH 5 0
BBX 5 11 0 -2
BITMAP
00
00
00
00
40
A8
A8
10
00
00
00
ENDCHAR
STARTCHAR NO-BREAK SPACE
ENCODING 160
SWIDTH 480 0
DWIDTH 5 0
BBX 5 11 0 -2
BITMAP
00
00
00
00
00
00
00
90
F0
00
00
ENDCHAR
STARTCHAR INVERTED EXCLAMATION MARK
ENCODING 161
SWIDTH 480 0
DWIDTH 5 0
BBX 5 11 0 -2
BITMAP
00
00
00
20
20
00
20
20
20
00
00
ENDCHAR
STARTCHAR CENT SIGN
ENCODING 162
SWIDTH 480 0
DWIDTH 5 0
BBX 5 11 0 -2
BITMAP
00
00
00
20
70
A0
A0
A0
70
20
00
ENDCHAR
STARTCHAR POUND SIGN
ENCODING 163
SWIDTH 480 0
DWIDTH 5 0
BBX 5 11 0 -2
BITMAP
00
00
00
20
50
40
E0
40
F0
00
00
ENDCHAR
STARTCHAR CURRENCY SIGN
ENCODING 164
SWIDTH 480 0
DWIDTH 5 0
BBX 5 11 0 -2
BITMAP
00
00
00
00
88
70
50
70
88
00
00
ENDCHAR
STARTCHAR YEN SIGN
ENCODING 165
SWIDTH 480 0
DWIDTH 5 0
BBX 5 11 0 -2
BITMAP
00
00
00
88
50
F8
20
F8
20
00
00
ENDCHAR
STARTCHAR BROKEN BAR
ENCODING 166
SWIDTH 480 0
DWIDTH 5 0
BBX 5 11 0 -2
BITMAP
00
00
00
20
20
00
00
20
20
00
00
ENDCHAR
STARTCHAR SECTION SIGN
ENCODING 167
SWIDTH 480 0
DWIDTH 5 0
BBX 5 11 0 -2
BITMAP
00
00
70
80
60
90
90
60
10
E0
00
ENDCHAR
STARTCHAR DIAERESIS
ENCODING 168
SWIDTH 480 0
DWIDTH 5 0
BBX 5 11 0 -2
BITMAP
00
00
50
00
00
00
00
00
00
00
00
ENDCHAR
STARTCHAR COPYRIGHT SIGN
ENCODING 169
SWIDTH 480 0
DWIDTH 5 0
BBX 5 11 0 -2
BITMAP
00
00
00
70
C8
B8
B8
C8
70
00
00
ENDCHAR
STARTCHAR FEMININE ORDINAL INDICATOR
ENCODING 170
SWIDTH 480 0
DWIDTH 5 0
BBX 5 11 0 -2
BITMAP
00
00
70
90
90
70
00
F0
00
00
00
ENDCHAR
STARTCHAR LEFT-POINTING DOUBLE ANGLE QUOTATION MARK
ENCODING 171
SWIDTH 480 0
DWIDTH 5 0
BBX 5 11 0 -2
BITMAP
00
00
00
00
00
48
90
90
48
00
00
ENDCHAR
STARTCHAR NOT SIGN
ENCODING 172
SWIDTH 480 0
DWIDTH 5 0
BBX 5 11 0 -2
BITMAP
00
00
00
00
00
00
F0
10
10
00
00
ENDCHAR
STARTCHAR SOFT HYPHEN
ENCODING 173
SWIDTH 480 0
DWIDTH 5 0
BBX 5 11 0 -2
BITMAP
00
00
00
00
00
00
70
00
00
00
00
ENDCHAR
STARTCHAR REGISTERED SIGN
ENCODING 174
SWIDTH 480 0
DWIDTH 5 0
BBX 5 11 0 -2
BITMAP
00
00
00
70
88
A8
98
A8
70
00
00
ENDCHAR
STARTCHAR MACRON
ENCODING 175
SWIDTH 480 0
DWIDTH 5 0
BBX 5 11 0 -2
BITMAP
00
00
00
F0
00
00
00
00
00
00
00
ENDCHAR
STARTCHAR DEGREE SIGN
ENCODING 176
SWIDTH 480 0
DWIDTH 5 0
BBX 5 11 0 -2
BITMAP
00
00
60
90
90
60
00
00
00
00
00
ENDCHAR
STARTCHAR PLUS-MINUS SIGN
ENCODING 177
SWIDTH 480 0
DWIDTH 5 0
BBX 5 11 0 -2
BITMAP
00
00
00
20
20
F8
20
20
F8
00
00
ENDCHAR
STARTCHAR SUPERSCRIPT TWO
ENCODING 178
SWIDTH 480 0
DWIDTH 5 0
BBX 5 11 0 -2
BITMAP
00
00
20
50
20
70
00
00
00
00
00
ENDCHAR
STARTCHAR SUPERSCRIPT THREE
ENCODING 179
SWIDTH 480 0
DWIDTH 5 0
BBX 5 11 0 -2
BITMAP
00
00
70
20
10
60
00
00
00
00
00
ENDCHAR
STARTCHAR ACUTE ACCENT
ENCODING 180
SWIDTH 480 0
DWIDTH 5 0
BBX 5 11 0 -2
BITMAP
00
20
40
00
00
00
00
00
00
00
00
ENDCHAR
STARTCHAR MICRO SIGN
ENCODING 181
SWIDTH 480 0
DWIDTH 5 0
BBX 5 11 0 -2
BITMAP
00
00
00
00
90
90
90
90
F0
88
80
ENDCHAR
STARTCHAR PILCROW SIGN
ENCODING 182
SWIDTH 480 0
DWIDTH 5 0
BBX 5 11 0 -2
BITMAP
00
00
00
78
E8
E8
68
28
28
00
00
ENDCHAR
STARTCHAR MIDDLE DOT
ENCODING 183
SWIDTH 480 0
DWIDTH 5 0
BBX 5 11 0 -2
BITMAP
00
00
00
00
00
20
20
00
00
00
00
ENDCHAR
STARTCHAR CEDILLA
ENCODING 184
SWIDTH 480 0
DWIDTH 5 0
BBX 5 11 0 -2
BITMAP
00
00
00
00
00
00
00
00
00
20
40
ENDCHAR
STARTCHAR SUPERSCRIPT ONE
ENCODING 185
SWIDTH 480 0
DWIDTH 5 0
BBX 5 11 0 -2
BITMAP
00
00
20
60
20
20
00
00
00
00
00
ENDCHAR
STARTCHAR MASCULINE ORDINAL INDICATOR
ENCODING 186
SWIDTH 480 0
DWIDTH 5 0
BBX 5 11 0 -2
BITMAP
00
00
60
90
90
60
00
F0
00
00
00
ENDCHAR
STARTCHAR RIGHT-POINTING DOUBLE ANGLE QUOTATION MARK
ENCODING 187
SWIDTH 480 0
DWIDTH 5 0
BBX 5 11 0 -2
BITMAP
00
00
00
00
00
90
48
48
90
00
00
ENDCHAR
STARTCHAR VULGAR FRACTION ONE QUARTER
ENCODING 188
SWIDTH 480 0
DWIDTH 5 0
BBX 5 11 0 -2
BITMAP
00
00
40
C0
40
40
00
28
28
18
08
ENDCHAR
STARTCHAR VULGAR FRACTION ONE HALF
ENCODING 189
SWIDTH 480 0
DWIDTH 5 0
BBX 5 11 0 -2
BITMAP
00
00
40
C0
40
40
00
10
28
10
38
ENDCHAR
STARTCHAR VULGAR FRACTION THREE QUARTERS
ENCODING 190
SWIDTH 480 0
DWIDTH 5 0
BBX 5 11 0 -2
BITMAP
00
00
E0
40
20
C0
00
28
28
18
08
ENDCHAR
STARTCHAR INVERTED QUESTION MARK
ENCODING 191
SWIDTH 480 0
DWIDTH 5 0
BBX 5 11 0 -2
BITMAP
00
00
00
20
00
20
40
80
70
00
00
ENDCHAR
STARTCHAR LATIN CAPITAL LETTER A WITH GRAVE
ENCODING 192
SWIDTH 480 0
DWIDTH 5 0
BBX 5 11 0 -2
BITMAP
40
20
00
60
90
90
F0
90
90
00
00
ENDCHAR
STARTCHAR LATIN CAPITAL LETTER A WITH ACUTE
ENCODING 193
SWIDTH 480 0
DWIDTH 5 0
BBX 5 11 0 -2
BITMAP
20
40
00
60
90
90
F0
90
90
00
00
ENDCHAR
STARTCHAR LATIN CAPITAL LETTER A WITH CIRCUMFLEX
ENCODING 194
SWIDTH 480 0
DWIDTH 5 0
BBX 5 11 0 -2
BITMAP
60
90
00
60
90
90
F0
90
90
00
00
ENDCHAR
STARTCHAR LATIN CAPITAL LETTER A WITH TILDE
ENCODING 195
SWIDTH 480 0
DWIDTH 5 0
BBX 5 11 0 -2
BITMAP
50
A0
00
60
90
90
F0
90
90
00
00
ENDCHAR
STARTCHAR LATIN CAPITAL LETTER A WITH DIAERESIS
ENCODING 196
SWIDTH 480 0
DWIDTH 5 0
BBX 5 11 0 -2
BITMAP
00
90
00
60
90
90
F0
90
90
00
00
ENDCHAR
STARTCHAR LATIN CAPITAL LETTER A WITH RING ABOVE
ENCODING 197
SWIDTH 480 0
DWIDTH 5 0
BBX 5 11 0 -2
BITMAP
60
90
60
60
90
90
F0
90
90
00
00
ENDCHAR
STARTCHAR LATIN CAPITAL LETTER AE
ENCODING 198
SWIDTH 480 0
DWIDTH 5 0
BBX 5 11 0 -2
BITMAP
00
00
00
78
A0
F0
A0
A0
B8
00
00
ENDCHAR
STARTCHAR LATIN CAPITAL LETTER C WITH CEDILLA
ENCODING 199
SWIDTH 480 0
DWIDTH 5 0
BBX 5 11 0 -2
BITMAP
00
00
00
70
80
80
80
80
70
40
80
ENDCHAR
STARTCHAR LATIN CAPITAL LETTER E WITH GRAVE
ENCODING 200
SWIDTH 480 0
DWIDTH 5 0
BBX 5 11 0 -2
BITMAP
40
20
00
F0
80
E0
80
80
F0
00
00
ENDCHAR
STARTCHAR LATIN CAPITAL LETTER E WITH ACUTE
ENCODING 201
SWIDTH 480 0
DWIDTH 5 0
BBX 5 11 0 -2
BITMAP
20
40
00
F0
80
E0
80
80
F0
00
00
ENDCHAR
STARTCHAR LATIN CAPITAL LETTER E WITH CIRCUMFLEX
ENCODING 202
SWIDTH 480 0
DWIDTH 5 0
BBX 5 11 0 -2
BITMAP
60
90
00
F0
80
E0
80
80
F0
00
00
ENDCHAR
STARTCHAR LATIN CAPITAL LETTER E WITH DIAERESIS
ENCODING 203
SWIDTH 480 0
DWIDTH 5 0
BBX 5 11 0 -2
BITMAP
00
90
00
F0
80
E0
80
80
F0
00
00
ENDCHAR
STARTCHAR LATIN CAPITAL LETTER I WITH GRAVE
ENCODING 204
SWIDTH 480 0
DWIDTH 5 0
BBX 5 11 0 -2
BITMAP
40
20
00
70
20
20
20
20
70
00
00
ENDCHAR
STARTCHAR LATIN CAPITAL LETTER I WITH ACUTE
ENCODING 205
SWIDTH 480 0
DWIDTH 5 0
BBX 5 11 0 -2
BITMAP
10
20
00
70
20
20
20
20
70
00
00
ENDCHAR
STARTCHAR LATIN CAPITAL LETTER I WITH CIRCUMFLEX
ENCODING 206
SWIDTH 480 0
DWIDTH 5 0
BBX 5 11 0 -2
BITMAP
20
50
00
70
20
20
20
20
70
00
00
ENDCHAR
STARTCHAR LATIN CAPITAL LETTER I WITH DIAERESIS
ENCODING 207
SWIDTH 480 0
DWIDTH 5 0
BBX 5 11 0 -2
BITMAP
00
50
00
70
20
20
20
20
70
00
00
ENDCHAR
STARTCHAR LATIN CAPITAL LETTER ETH
ENCODING 208
SWIDTH 480 0
DWIDTH 5 0
BBX 5 11 0 -2
BITMAP
00
00
00
70
48
E8
48
48
70
00
00
ENDCHAR
STARTCHAR LATIN CAPITAL LETTER N WITH TILDE
ENCODING 209
SWIDTH 480 0
DWIDTH 5 0
BBX 5 11 0 -2
BITMAP
50
A0
00
90
D0
D0
B0
B0
90
00
00
ENDCHAR
STARTCHAR LATIN CAPITAL LETTER O WITH GRAVE
ENCODING 210
SWIDTH 480 0
DWIDTH 5 0
BBX 5 11 0 -2
BITMAP
40
20
00
60
90
90
90
90
60
00
00
ENDCHAR
STARTCHAR LATIN CAPITAL LETTER O WITH ACUTE
ENCODING 211
SWIDTH 480 0
DWIDTH 5 0
BBX 5 11 0 -2
BITMAP
20
40
00
60
90
90
90
90
60
00
00
ENDCHAR
STARTCHAR LATIN CAPITAL LETTER O WITH CIRCUMFLEX
ENCODING 212
SWIDTH 480 0
DWIDTH 5 0
BBX 5 11 0 -2
BITMAP
60
90
00
60
90
90
90
90
60
00
00
ENDCHAR
STARTCHAR LATIN CAPITAL LETTER O WITH TILDE
ENCODING 213
SWIDTH 480 0
DWIDTH 5 0
BBX 5 11 0 -2
BITMAP
50
A0
00
60
90
90
90
90
60
00
00
ENDCHAR
STARTCHAR LATIN CAPITAL LETTER O WITH DIAERESIS
ENCODING 214
SWIDTH 480 0
DWIDTH 5 0
BBX 5 11 0 -2
BITMAP
00
90
00
60
90
90
90
90
60
00
00
ENDCHAR
STARTCHAR MULTIPLICATION SIGN
ENCODING 215
SWIDTH 480 0
DWIDTH 5 0
BBX 5 11 0 -2
BITMAP
00
00
00
00
00
50
20
50
00
00
00
ENDCHAR
STARTCHAR LATIN CAPITAL LETTER O WITH STROKE
ENCODING 216
SWIDTH 480 0
DWIDTH 5 0
BBX 5 11 0 -2
BITMAP
00
00
10
60
90
B0
D0
90
60
80
00
ENDCHAR
STARTCHAR LATIN CAPITAL LETTER U WITH GRAVE
ENCODING 217
SWIDTH 480 0
DWIDTH 5 0
BBX 5 11 0 -2
BITMAP
40
20
00
90
90
90
90
90
70
00
00
ENDCHAR
STARTCHAR LATIN CAPITAL LETTER U WITH ACUTE
ENCODING 218
SWIDTH 480 0
DWIDTH 5 0
BBX 5 11 0 -2
BITMAP
20
40
00
90
90
90
90
90
70
00
00
ENDCHAR
STARTCHAR LATIN CAPITAL LETTER U WITH CIRCUMFLEX
ENCODING 219
SWIDTH 480 0
DWIDTH 5 0
BBX 5 11 0 -2
BITMAP
60
90
00
90
90
90
90
90
70
00
00
ENDCHAR
STARTCHAR LATIN CAPITAL LETTER U WITH DIAERESIS
ENCODING 220
SWIDTH 480 0
DWIDTH 5 0
BBX 5 11 0 -2
BITMAP
00
90
00
90
90
90
90
90
70
00
00
ENDCHAR
STARTCHAR LATIN CAPITAL LETTER Y WITH ACUTE
ENCODING 221
SWIDTH 480 0
DWIDTH 5 0
BBX 5 11 0 -2
BITMAP
40
20
00
90
90
90
60
20
20
00
00
ENDCHAR
STARTCHAR LATIN CAPITAL LETTER THORN
ENCODING 222
SWIDTH 480 0
DWIDTH 5 0
BBX 5 11 0 -2
BITMAP
00
00
00
80
E0
90
90
E0
80
00
00
ENDCHAR
STARTCHAR LATIN SMALL LETTER SHARP S
ENCODING 223
SWIDTH 480 0
DWIDTH 5 0
BBX 5 11 0 -2
BITMAP
00
00
00
60
90
A0
90
90
A0
00
00
ENDCHAR
STARTCHAR LATIN SMALL LETTER A WITH GRAVE
ENCODING 224
SWIDTH 480 0
DWIDTH 5 0
BBX 5 11 0 -2
BITMAP
00
40
20
00
70
90
90
90
70
00
00
ENDCHAR
STARTCHAR LATIN SMALL LETTER A WITH ACUTE
ENCODING 225
SWIDTH 480 0
DWIDTH 5 0
BBX 5 11 0 -2
BITMAP
00
20
40
00
70
90
90
90
70
00
00
ENDCHAR
STARTCHAR LATIN SMALL LETTER A WITH CIRCUMFLEX
ENCODING 226
SWIDTH 480 0
DWIDTH 5 0
BBX 5 11 0 -2
BITMAP
00
60
90
00
70
90
90
90
70
00
00
ENDCHAR
STARTCHAR LATIN SMALL LETTER A WITH TILDE
ENCODING 227
SWIDTH 480 0
DWIDTH 5 0
BBX 5 11 0 -2
BITMAP
00
50
A0
00
70
90
90
90
70
00
00
ENDCHAR
STARTCHAR LATIN SMALL LETTER A WITH DIAERESIS
ENCODING 228
SWIDTH 480 0
DWIDTH 5 0
BBX 5 11 0 -2
BITMAP
00
00
90
00
70
90
90
90
70
00
00
ENDCHAR
STARTCHAR LATIN SMALL LETTER A WITH RING ABOVE
ENCODING 229
SWIDTH 480 0
DWIDTH 5 0
BBX 5 11 0 -2
BITMAP
60
90
60
00
70
90
90
90
70
00
00
ENDCHAR
STARTCHAR LATIN SMALL LETTER AE
ENCODING 230
SWIDTH 480 0
DWIDTH 5 0
BBX 5 11 0 -2
BITMAP
00
00
00
00
D8
28
70
A0
D8
00
00
ENDCHAR
STARTCHAR LATIN SMALL LETTER C WITH CEDILLA
ENCODING 231
SWIDTH 480 0
DWIDTH 5 0
BBX 5 11 0 -2
BITMAP
00
00
00
00
70
80
80
80
70
40
80
ENDCHAR
STARTCHAR LATIN SMALL LETTER E WITH GRAVE
ENCODING 232
SWIDTH 480 0
DWIDTH 5 0
BBX 5 11 0 -2
BITMAP
00
40
20
00
60
90
F0
80
70
00
00
ENDCHAR
STARTCHAR LATIN SMALL LETTER E WITH ACUTE
ENCODING 233
SWIDTH 480 0
DWIDTH 5 0
BBX 5 11 0 -2
BITMAP
00
20
40
00
60
90
F0
80
70
00
00
ENDCHAR
STARTCHAR LATIN SMALL LETTER E WITH CIRCUMFLEX
ENCODING 234
SWIDTH 480 0
DWIDTH 5 0
BBX 5 11 0 -2
BITMAP
00
60
90
00
60
90
F0
80
70
00
00
ENDCHAR
STARTCHAR LATIN SMALL LETTER E WITH DIAERESIS
ENCODING 235
SWIDTH 480 0
DWIDTH 5 0
BBX 5 11 0 -2
BITMAP
00
00
90
00
60
90
F0
80
70
00
00
ENDCHAR
STARTCHAR LATIN SMALL LETTER I WITH GRAVE
ENCODING 236
SWIDTH 480 0
DWIDTH 5 0
BBX 5 11 0 -2
BITMAP
00
40
20
00
60
20
20
20
20
00
00
ENDCHAR
STARTCHAR LATIN SMALL LETTER I WITH ACUTE
ENCODING 237
SWIDTH 480 0
DWIDTH 5 0
BBX 5 11 0 -2
BITMAP
00
10
20
00
60
20
20
20
20
00
00
ENDCHAR
STARTCHAR LATIN SMALL LETTER I WITH CIRCUMFLEX
ENCODING 238
SWIDTH 480 0
DWIDTH 5 0
BBX 5 11 0 -2
BITMAP
00
20
50
00
60
20
20
20
20
00
00
ENDCHAR
STARTCHAR LATIN SMALL LETTER I WITH DIAERESIS
ENCODING 239
SWIDTH 480 0
DWIDTH 5 0
BBX 5 11 0 -2
BITMAP
00
00
50
00
60
20
20
20
20
00
00
ENDCHAR
STARTCHAR LATIN SMALL LETTER ETH
ENCODING 240
SWIDTH 480 0
DWIDTH 5 0
BBX 5 11 0 -2
BITMAP
00
A0
40
A0
70
90
90
90
60
00
00
ENDCHAR
STARTCHAR LATIN SMALL LETTER N WITH TILDE
ENCODING 241
SWIDTH 480 0
DWIDTH 5 0
BBX 5 11 0 -2
BITMAP
00
50
A0
00
E0
90
90
90
90
00
00
ENDCHAR
STARTCHAR LATIN SMALL LETTER O WITH GRAVE
ENCODING 242
SWIDTH 480 0
DWIDTH 5 0
BBX 5 11 0 -2
BITMAP
00
40
20
00
60
90
90
90
60
00
00
ENDCHAR
STARTCHAR LATIN SMALL LETTER O WITH ACUTE
ENCODING 243
SWIDTH 480 0
DWIDTH 5 0
BBX 5 11 0 -2
BITMAP
00
20
40
00
60
90
90
90
60
00
00
ENDCHAR
STARTCHAR LATIN SMALL LETTER O WITH CIRCUMFLEX
ENCODING 244
SWIDTH 480 0
DWIDTH 5 0
BBX 5 11 0 -2
BITMAP
00
60
90
00
60
90
90
90
60
00
00
ENDCHAR
STARTCHAR LATIN SMALL LETTER O WITH TILDE
ENCODING 245
SWIDTH 480 0
DWIDTH 5 0
BBX 5 11 0 -2
BITMAP
00
50
A0
00
60
90
90
90
60
00
00
ENDCHAR
STARTCHAR LATIN SMALL LETTER O WITH DIAERESIS
ENCODING 246
SWIDTH 480 0
DWIDTH 5 0
BBX 5 11 0 -2
BITMAP
00
00
90
00
60
90
90
90
60
00
00
ENDCHAR
STARTCHAR DIVISION SIGN
ENCODING 247
SWIDTH 480 0
DWIDTH 5 0
BBX 5 11 0 -2
BITMAP
00
00
00
00
20
00
F8
00
20
00
00
ENDCHAR
STARTCHAR LATIN SMALL LETTER O WITH STROKE
ENCODING 248
SWIDTH 480 0
DWIDTH 5 0
BBX 5 11 0 -2
BITMAP
00
00
00
10
60
B0
F0
D0
60
80
00
ENDCHAR
STARTCHAR LATIN SMALL LETTER U WITH GRAVE
ENCODING 249
SWIDTH 480 0
DWIDTH 5 0
BBX 5 11 0 -2
BITMAP
00
40
20
00
90
90
90
90
70
00
00
ENDCHAR
STARTCHAR LATIN SMALL LETTER U WITH ACUTE
ENCODING 250
SWIDTH 480 0
DWIDTH 5 0
BBX 5 11 0 -2
BITMAP
00
20
40
00
90
90
90
90
70
00
00
ENDCHAR
STARTCHAR LATIN SMALL LETTER U WITH CIRCUMFLEX
ENCODING 251
SWIDTH 480 0
DWIDTH 5 0
BBX 5 11 0 -2
BITMAP
00
60
90
00
90
90
90
90
70
00
00
ENDCHAR
STARTCHAR LATIN SMALL LETTER U WITH DIAERESIS
ENCODING 252
SWIDTH 480 0
DWIDTH 5 0
BBX 5 11 0 -2
BITMAP
00
00
90
00
90
90
90
90
70
00
00
ENDCHAR
STARTCHAR LATIN SMALL LETTER Y WITH ACUTE
ENCODING 253
SWIDTH 480 0
DWIDTH 5 0
BBX 5 11 0 -2
BITMAP
00
20
40
00
90
90
90
90
70
10
60
ENDCHAR
STARTCHAR LATIN SMALL LETTER THORN
ENCODING 254
SWIDTH 480 0
DWIDTH 5 0
BBX 5 11 0 -2
BITMAP
00
00
00
80
A0
D0
90
D0
A0
80
00
ENDCHAR
STARTCHAR LATIN SMALL LETTER Y WITH DIAERESIS
ENCODING 255
SWIDTH 480 0
DWIDTH 5 0
BBX 5 11 0 -2
BITMAP
00
00
90
00
90
90
90
90
70
10
60
ENDCHAR
STARTCHAR BOX DRAWINGS LIGHT HORIZONTAL
ENCODING 9472
SWIDTH 480 0
DWIDTH 5 0
BBX 5 11 0 -2
BITMAP
00
00
00
00
F8
00
00
00
00
00
00
ENDCHAR
STARTCHAR BOX DRAWINGS HEAVY HORIZONTAL
ENCODING 9473
SWIDTH 480 0
DWIDTH 5 0
BBX 5 11 0 -2
BITMAP
00
00
00
00
F8
F8
00
00
00
00
00
ENDCHAR
STARTCHAR BOX DRAWINGS LIGHT VERTICAL
ENCODING 9474
SWIDTH 480 0
DWIDTH 5 0
BBX 5 11 0 -2
BITMAP
20
20
20
20
20
20
20
20
20
20
20
ENDCHAR
STARTCHAR BOX DRAWINGS HEAVY VERTICAL
ENCODING 9475
SWIDTH 480 0
DWIDTH 5 0
BBX 5 11 0 -2
BITMAP
30
30
30
30
30
30
30
30
30
30
30
ENDCHAR
STARTCHAR BOX DRAWINGS LIGHT TRIPLE DASH HORIZONTAL
ENCODING 9476
SWIDTH 480 0
DWIDTH 5 0
BBX 5 11 0 -2
BITMAP
00
00
00
00
D8
00
00
00
00
00
00
ENDCHAR
STARTCHAR BOX DRAWINGS HEAVY TRIPLE DASH HORIZONTAL
ENCODING 9477
SWIDTH 480 0
DWIDTH 5 0
BBX 5 11 0 -2
BITMAP
00
00
00
00
D8
D8
00
00
00
00
00
ENDCHAR
STARTCHAR BOX DRAWINGS LIGHT TRIPLE DASH VERTICAL
ENCODING 9478
SWIDTH 480 0
DWIDTH 5 0
BBX 5 11 0 -2
BITMAP
20
20
20
00
20
20
20
00
20
20
20
ENDCHAR
STARTCHAR BOX DRAWINGS HEAVY TRIPLE DASH VERTICAL
ENCODING 9479
SWIDTH 480 0
DWIDTH 5 0
BBX 5 11 0 -2
BITMAP
30
30
30
00
30
30
30
00
30
30
30
ENDCHAR
STARTCHAR BOX DRAWINGS LIGHT QUADRUPLE DASH HORIZONTAL
ENCODING 9480
SWIDTH 480 0
DWIDTH 5 0
BBX 5 11 0 -2
BITMAP
00
00
00
00
A8
00
00
00
00
00
00
ENDCHAR
STARTCHAR BOX DRAWINGS HEAVY QUADRUPLE DASH HORIZONTAL
ENCODING 9481
SWIDTH 480 0
DWIDTH 5 0
BBX 5 11 0 -2
BITMAP
00
00
00
00
A8
A8
00
00
00
00
00
ENDCHAR
STARTCHAR BOX DRAWINGS LIGHT QUADRUPLE DASH VERTICAL
ENCODING 9482
SWIDTH 480 0
DWIDTH 5 0
BBX 5 11 0 -2
BITMAP
20
20
00
20
20
00
20
20
00
20
20
ENDCHAR
STARTCHAR BOX DRAWINGS HEAVY QUADRUPLE DASH VERTICAL
ENCODING 9483
SWIDTH 480 0
DWIDTH 5 0
BBX 5 11 0 -2
BITMAP
30
30
00
30
30
00
30
30
00
30
30
ENDCHAR
STARTCHAR BOX DRAWINGS LIGHT DOWN AND RIGHT
ENCODING 9484
SWIDTH 480 0
DWIDTH 5 0
BBX 5 11 0 -2
BITMAP
00
00
00
00
38
20
20
20
20
20
20
ENDCHAR
STARTCHAR BOX DRAWINGS DOWN LIGHT AND RIGHT HEAVY
ENCODING 9485
SWIDTH 480 0
DWIDTH 5 0
BBX 5 11 0 -2
BITMAP
00
00
00
00
38
38
20
20
20
20
20
ENDCHAR
STARTCHAR BOX DRAWINGS DOWN HEAVY AND RIGHT LIGHT
ENCODING 9486
SWIDTH 480 0
DWIDTH 5 0
BBX 5 11 0 -2
BITMAP
00
00
00
00
38
30
30
30
30
30
30
ENDCHAR
STARTCHAR BOX DRAWINGS HEAVY DOWN AND RIGHT
ENCODING 9487
SWIDTH 480 0
DWIDTH 5 0
BBX 5 11 0 -2
BITMAP
00
00
00
00
38
38
30
30
30
30
30
ENDCHAR
STARTCHAR BOX DRAWINGS LIGHT DOWN AND LEFT
ENCODING 9488
SWIDTH 480 0
DWIDTH 5 0
BBX 5 11 0 -2
BITMAP
00
00
00
00
E0
20
20
20
20
20
20
ENDCHAR
STARTCHAR BOX DRAWINGS DOWN LIGHT AND LEFT HEAVY
ENCODING 9489
SWIDTH 480 0
DWIDTH 5 0
BBX 5 11 0 -2
BITMAP
00
00
00
00
E0
E0
20
20
20
20
20
ENDCHAR
STARTCHAR BOX DRAWINGS DOWN HEAVY AND LEFT LIGHT
ENCODING 9490
SWIDTH 480 0
DWIDTH 5 0
BBX 5 11 0 -2
BITMAP
00
00
00
00
F0
30
30
30
30
30
30
ENDCHAR
STARTCHAR BOX DRAWINGS HEAVY DOWN AND LEFT
ENCODING 9491
SWIDTH 480 0
DWIDTH 5 0
BBX 5 11 0 -2
BITMAP
00
00
00
00
F0
F0
30
30
30
30
30
ENDCHAR
STARTCHAR BOX DRAWINGS LIGHT UP AND RIGHT
ENCODING 9492
SWIDTH 480 0
DWIDTH 5 0
BBX 5 11 0 -2
BITMAP
20
20
20
20
38
00
00
00
00
00
00
ENDCHAR
STARTCHAR BOX DRAWINGS UP LIGHT AND RIGHT HEAVY
ENCODING 9493
SWIDTH 480 0
DWIDTH 5 0
BBX 5 11 0 -2
BITMAP
20
20
20
20
38
38
00
00
00
00
00
ENDCHAR
STARTCHAR BOX DRAWINGS UP HEAVY AND RIGHT LIGHT
ENCODING 9494
SWIDTH 480 0
DWIDTH 5 0
BBX 5 11 0 -2
BITMAP
30
30
30
30
38
00
00
00
00
00
00
ENDCHAR
STARTCHAR BOX DRAWINGS HEAVY UP AND RIGHT
ENCODING 9495
SWIDTH 480 0
DWIDTH 5 0
BBX 5 11 0 -2
BITMAP
30
30
30
30
38
38
00
00
00
00
00
ENDCHAR
STARTCHAR BOX DRAWINGS LIGHT UP AND LEFT
ENCODING 9496
SWIDTH 480 0
DWIDTH 5 0
BBX 5 11 0 -2
BITMAP
20
20
20
20
E0
00
00
00
00
00
00
ENDCHAR
STARTCHAR BOX DRAWINGS UP LIGHT AND LEFT HEAVY
ENCODING 9497
SWIDTH 480 0
DWIDTH 5 0
BBX 5 11 0 -2
BITMAP
20
20
20
20
E0
E0
00
00
00
00
00
ENDCHAR
STARTCHAR BOX DRAWINGS UP HEAVY AND LEFT LIGHT
ENCODING 9498
SWIDTH 480 0
DWIDTH 5 0
BBX 5 11 0 -2
BITMAP
30
30
30
30
F0
00
00
00
00
00
00
ENDCHAR
STARTCHAR BOX DRAWINGS HEAVY UP AND LEFT
ENCODING 9499
SWIDTH 480 0
DWIDTH 5 0
BBX 5 11 0 -2
BITMAP
30
30
30
30
F0
F0
00
00
00
00
00
ENDCHAR
STARTCHAR BOX DRAWINGS LIGHT VERTICAL AND RIGHT
ENCODING 9500
SWIDTH 480 0
DWIDTH 5 0
BBX 5 11 0 -2
BITMAP
20
20
20
20
38
20
20
20
20
20
20
ENDCHAR
STARTCHAR BOX DRAWINGS VERTICAL LIGHT AND RIGHT HEAVY
ENCODING 9501
SWIDTH 480 0
DWIDTH 5 0
BBX 5 11 0 -2
BITMAP
20
20
20
20
38
38
20
20
20
20
20
ENDCHAR
STARTCHAR BOX DRAWINGS UP HEAVY AND RIGHT DOWN LIGHT
ENCODING 9502
SWIDTH 480 0
DWIDTH 5 0
BBX 5 11 0 -2
BITMAP
30
30
30
30
38
20
20
20
20
20
20
ENDCHAR
STARTCHAR BOX DRAWINGS DOWN HEAVY AND RIGHT UP LIGHT
ENCODING 9503
SWIDTH 480 0
DWIDTH 5 0
BBX 5 11 0 -2
BITMAP
20
20
20
20
38
30
30
30
30
30
30
ENDCHAR
STARTCHAR BOX DRAWINGS VERTICAL HEAVY AND RIGHT LIGHT
ENCODING 9504
SWIDTH 480 0
DWIDTH 5 0
BBX 5 11 0 -2
BITMAP
30
30
30
30
38
30
30
30
30
30
30
ENDCHAR
STARTCHAR BOX DRAWINGS DOWN LIGHT AND RIGHT UP HEAVY
ENCODING 9505
SWIDTH 480 0
DWIDTH 5 0
BBX 5 11 0 -2
BITMAP
30
30
30
30
38
38
20
20
20
20
20
ENDCHAR
STARTCHAR BOX DRAWINGS UP LIGHT AND RIGHT DOWN HEAVY
ENCODING 9506
SWIDTH 480 0
DWIDTH 5 0
BBX 5 11 0 -2
BITMAP
20
20
20
20
38
38
30
30
30
30
30
ENDCHAR
STARTCHAR BOX DRAWINGS HEAVY VERTICAL AND RIGHT
ENCODING 9507
SWIDTH 480 0
DWIDTH 5 0
BBX 5 11 0 -2
BITMAP
30
30
30
30
38
38
30
30
30
30
30
ENDCHAR
STARTCHAR BOX DRAWINGS LIGHT VERTICAL AND LEFT
ENCODING 9508
SWIDTH 480 0
DWIDTH 5 0
BBX 5 11 0 -2
BITMAP
20
20
20
20
E0
20
20
20
20
20
20
ENDCHAR
STARTCHAR BOX DRAWINGS VERTICAL LIGHT AND LEFT HEAVY
ENCODING 9509
SWIDTH 480 0
DWIDTH 5 0
BBX 5 11 0 -2
BITMAP
20
20
20
20
E0
E0
20
20
20
20
20
ENDCHAR
STARTCHAR BOX DRAWINGS UP HEAVY AND LEFT DOWN LIGHT
ENCODING 9510
SWIDTH 480 0
DWIDTH 5 0
BBX 5 11 0 -2
BITMAP
30
30
30
30
F0
20
20
20
20
20
20
ENDCHAR
STARTCHAR BOX DRAWINGS DOWN HEAVY AND LEFT UP LIGHT
ENCODING 9511
SWIDTH 480 0
DWIDTH 5 0
BBX 5 11 0 -2
BITMAP
20
20
20
20
F0
30
30
30
30
30
30
ENDCHAR
STARTCHAR BOX DRAWINGS VERTICAL HEAVY AND LEFT LIGHT
ENCODING 9512
SWIDTH 480 0
DWIDTH 5 0
BBX 5 11 0 -2
BITMAP
30
30
30
30
F0
30
30
30
30
30
30
ENDCHAR
STARTCHAR BOX DRAWINGS DOWN LIGHT AND LEFT UP HEAVY
ENCODING 9513
SWIDTH 480 0
DWIDTH 5 0
BBX 5 11 0 -2
BITMAP
30
30
30
30
F0
F0
20
20
20
20
20
ENDCHAR
STARTCHAR BOX DRAWINGS UP LIGHT AND LEFT DOWN HEAVY
ENCODING 9514
SWIDTH 480 0
DWIDTH 5 0
BBX 5 11 0 -2
BITMAP
20
20
20
20
F0
F0
30
30
30
30
30
ENDCHAR
STARTCHAR BOX DRAWINGS HEAVY VERTICAL AND LEFT
ENCODING 9515
SWIDTH 480 0
DWIDTH 5 0
BBX 5 11 0 -2
BITMAP
30
30
30
30
F0
F0
30
30
30
30
30
ENDCHAR
STARTCHAR BOX DRAWINGS LIGHT DOWN AND HORIZONTAL
ENCODING 9516
SWIDTH 480 0
DWIDTH 5 0
BBX 5 11 0 -2
BITMAP
00
00
00
00
F8
20
20
20
20
20
20
ENDCHAR
STARTCHAR BOX DRAWINGS LEFT HEAVY AND RIGHT DOWN LIGHT
ENCODING 9517
SWIDTH 480 0
DWIDTH 5 0
BBX 5 11 0 -2
BITMAP
00
00
00
00
F8
E0
20
20
20
20
20
ENDCHAR
STARTCHAR BOX DRAWINGS RIGHT HEAVY AND LEFT DOWN LIGHT
ENCODING 9518
SWIDTH 480 0
DWIDTH 5 0
BBX 5 11 0 -2
BITMAP
00
00
00
00
F8
38
20
20
20
20
20
ENDCHAR
STARTCHAR BOX DRAWINGS DOWN LIGHT AND HORIZONTAL HEAVY
ENCODING 9519
SWIDTH 480 0
DWIDTH 5 0
BBX 5 11 0 -2
BITMAP
00
00
00
00
F8
F8
20
20
20
20
20
ENDCHAR
STARTCHAR BOX DRAWINGS DOWN HEAVY AND HORIZONTAL LIGHT
ENCODING 9520
SWIDTH 480 0
DWIDTH 5 0
BBX 5 11 0 -2
BITMAP
00
00
00
00
F8
30
30
30
30
30
30
ENDCHAR
STARTCHAR BOX DRAWINGS RIGHT LIGHT AND LEFT DOWN HEAVY
ENCODING 9521
SWIDTH 480 0
DWIDTH 5 0
BBX 5 11 0 -2
BITMAP
00
00
00
00
F8
F0
30
30
30
30
30
ENDCHAR
STARTCHAR BOX DRAWINGS LEFT LIGHT AND RIGHT DOWN HEAVY
ENCODING 9522
SWIDTH 480 0
DWIDTH 5 0
BBX 5 11 0 -2
BITMAP
00
00
00
00
F8
38
30
30
30
30
30
ENDCHAR
STARTCHAR BOX DRAWINGS HEAVY DOWN AND HORIZONTAL
ENCODING 9523
SWIDTH 480 0
DWIDTH 5 0
BBX 5 11 0 -2
BITMAP
00
00
00
00
F8
F8
30
30
30
30
30
ENDCHAR
STARTCHAR BOX DRAWINGS LIGHT UP AND HORIZONTAL
ENCODING 9524
SWIDTH 480 0
DWIDTH 5 0
BBX 5 11 0 -2
BITMAP
20
20
20
20
F8
00
00
00
00
00
00
ENDCHAR
STARTCHAR BOX DRAWINGS LEFT HEAVY AND RIGHT UP LIGHT
ENCODING 9525
SWIDTH 480 0
DWIDTH 5 0
BBX 5 11 0 -2
BITMAP
20
20
20
20
F8
E0
00
00
00
00
00
ENDCHAR
STARTCHAR BOX DRAWINGS RIGHT HEAVY AND LEFT UP LIGHT
ENCODING 9526
SWIDTH 480 0
DWIDTH 5 0
BBX 5 11 0 -2
BITMAP
20
20
20
20
F8
38
00
00
00
00
00
ENDCHAR
STARTCHAR BOX DRAWINGS UP LIGHT AND HORIZONTAL HEAVY
ENCODING 9527
SWIDTH 480 0
DWIDTH 5 0
BBX 5 11 0 -2
BITMAP
20
20
20
20
F8
F8
00
00
00
00
00
ENDCHAR
STARTCHAR BOX DRAWINGS UP HEAVY AND HORIZONTAL LIGHT
ENCODING 9528
SWIDTH 480 0
DWIDTH 5 0
BBX 5 11 0 -2
BITMAP
30
30
30
30
F8
00
00
00
00
00
00
ENDCHAR
STARTCHAR BOX DRAWINGS RIGHT LIGHT AND LEFT UP HEAVY
ENCODING 9529
SWIDTH 480 0
DWIDTH 5 0
BBX 5 11 0 -2
BITMAP
20
20
20
20
F8
E0
00
00
00
00
00
ENDCHAR
STARTCHAR BOX DRAWINGS LEFT LIGHT AND RIGHT UP HEAVY
ENCODING 9530
SWIDTH 480 0
DWIDTH 5 0
BBX 5 11 0 -2
BITMAP
30
30
30
30
F8
38
00
00
00
00
00
ENDCHAR
STARTCHAR BOX DRAWINGS HEAVY UP AND HORIZONTAL
ENCODING 9531
SWIDTH 480 0
DWIDTH 5 0
BBX 5 11 0 -2
BITMAP
30
30
30
30
F8
F8
00
00
00
00
00
ENDCHAR
STARTCHAR BOX DRAWINGS LIGHT VERTICAL AND HORIZONTAL
ENCODING 9532
SWIDTH 480 0
DWIDTH 5 0
BBX 5 11 0 -2
BITMAP
20
20
20
20
F8
20
20
20
20
20
20
ENDCHAR
STARTCHAR BOX DRAWINGS LEFT HEAVY AND RIGHT VERTICAL LIGHT
ENCODING 9533
SWIDTH 480 0
DWIDTH 5 0
BBX 5 11 0 -2
BITMAP
20
20
20
20
F8
E0
20
20
20
20
20
ENDCHAR
STARTCHAR BOX DRAWINGS RIGHT HEAVY AND LEFT VERTICAL LIGHT
ENCODING 9534
SWIDTH 480 0
DWIDTH 5 0
BBX 5 11 0 -2
BITMAP
20
20
20
20
F8
38
20
20
20
20
20
ENDCHAR
STARTCHAR BOX DRAWINGS VERTICAL LIGHT AND HORIZONTAL HEAVY
ENCODING 9535
SWIDTH 480 0
DWIDTH 5 0
BBX 5 11 0 -2
BITMAP
20
20
20
20
F8
F8
20
20
20
20
20
ENDCHAR
STARTCHAR BOX DRAWINGS UP HEAVY AND DOWN HORIZONTAL LIGHT
ENCODING 9536
SWIDTH 480 0
DWIDTH 5 0
BBX 5 11 0 -2
BITMAP
30
30
30
30
F8
20
20
20
20
20
20
ENDCHAR
STARTCHAR BOX DRAWINGS DOWN HEAVY AND UP HORIZONTAL LIGHT
ENCODING 9537
SWIDTH 480 0
DWIDTH 5 0
BBX 5 11 0 -2
BITMAP
20
20
20
20
F8
30
30
30
30
30
30
ENDCHAR
STARTCHAR BOX DRAWINGS VERTICAL HEAVY AND HORIZONTAL LIGHT
ENCODING 9538
SWIDTH 480 0
DWIDTH 5 0
BBX 5 11 0 -2
BITMAP
30
30
30
30
F8
30
30
30
30
30
30
ENDCHAR
STARTCHAR BOX DRAWINGS LEFT UP HEAVY AND RIGHT DOWN LIGHT
ENCODING 9539
SWIDTH 480 0
DWIDTH 5 0
BBX 5 11 0 -2
BITMAP
30
30
30
30
F8
F0
20
20
20
20
20
ENDCHAR
STARTCHAR BOX DRAWINGS RIGHT UP HEAVY AND LEFT DOWN LIGHT
ENCODING 9540
SWIDTH 480 0
DWIDTH 5 0
BBX 5 11 0 -2
BITMAP
30
30
30
30
F8
38
20
20
20
20
20
ENDCHAR
STARTCHAR BOX DRAWINGS LEFT DOWN HEAVY AND RIGHT UP LIGHT
ENCODING 9541
SWIDTH 480 0
DWIDTH 5 0
BBX 5 11 0 -2
BITMAP
20
20
20
20
F8
F0
30
30
30
30
30
ENDCHAR
STARTCHAR BOX DRAWINGS RIGHT DOWN HEAVY AND LEFT UP LIGHT
ENCODING 9542
SWIDTH 480 0
DWIDTH 5 0
BBX 5 11 0 -2
BITMAP
20
20
20
20
F8
38
30
30
30
30
30
ENDCHAR
STARTCHAR BOX DRAWINGS DOWN LIGHT AND UP HORIZONTAL HEAVY
ENCODING 9543
SWIDTH 480 0
DWIDTH 5 0
BBX 5 11 0 -2
BITMAP
30
30
30
30
F8
F8
20
20
20
20
20
ENDCHAR
STARTCHAR BOX DRAWINGS UP LIGHT AND DOWN HORIZONTAL HEAVY
ENCODING 9544
SWIDTH 480 0
DWIDTH 5 0
BBX 5 11 0 -2
BITMAP
20
20
20
20
F8
F8
30
30
30
30
30
ENDCHAR
STARTCHAR BOX DRAWINGS RIGHT LIGHT AND LEFT VERTICAL HEAVY
ENCODING 9545
SWIDTH 480 0
DWIDTH 5 0
BBX 5 11 0 -2
BITMAP
30
30
30
30
F8
F0
30
30
30
30
30
ENDCHAR
STARTCHAR BOX DRAWINGS LEFT LIGHT AND RIGHT VERTICAL HEAVY
ENCODING 9546
SWIDTH 480 0
DWIDTH 5 0
BBX 5 11 0 -2
BITMAP
30
30
30
30
F8
38
30
30
30
30
30
ENDCHAR
STARTCHAR BOX DRAWINGS HEAVY VERTICAL AND HORIZONTAL
ENCODING 9547
SWIDTH 480 0
DWIDTH 5 0
BBX 5 11 0 -2
BITMAP
30
30
30
30
F8
F8
30
30
30
30
30
ENDCHAR
STARTCHAR BOX DRAWINGS LIGHT DOUBLE DASH HORIZONTAL
ENCODING 9548
SWIDTH 480 0
DWIDTH 5 0
BBX 5 11 0 -2
BITMAP
00
00
00
00
D8
00
00
00
00
00
00
ENDCHAR
STARTCHAR BOX DRAWINGS HEAVY DOUBLE DASH HORIZONTAL
ENCODING 9549
SWIDTH 480 0
DWIDTH 5 0
BBX 5 11 0 -2
BITMAP
00
00
00
00
D8
D8
00
00
00
00
00
ENDCHAR
STARTCHAR BOX DRAWINGS LIGHT DOUBLE DASH VERTICAL
ENCODING 9550
SWIDTH 480 0
DWIDTH 5 0
BBX 5 11 0 -2
BITMAP
00
20
20
20
20
00
20
20
20
20
00
ENDCHAR
STARTCHAR BOX DRAWINGS HEAVY DOUBLE DASH VERTICAL
ENCODING 9551
SWIDTH 480 0
DWIDTH 5 0
BBX 5 11 0 -2
BITMAP
00
30
30
30
30
00
30
30
30
30
00
ENDCHAR
STARTCHAR BOX DRAWINGS DOUBLE HORIZONTAL
ENCODING 9552
SWIDTH 480 0
DWIDTH 5 0
BBX 5 11 0 -2
BITMAP
00
00
00
F8
00
F8
00
00
00
00
00
ENDCHAR
STARTCHAR BOX DRAWINGS DOUBLE VERTICAL
ENCODING 9553
SWIDTH 480 0
DWIDTH 5 0
BBX 5 11 0 -2
BITMAP
50
50
50
50
50
50
50
50
50
50
50
ENDCHAR
STARTCHAR BOX DRAWINGS DOWN SINGLE AND RIGHT DOUBLE
ENCODING 9554
SWIDTH 480 0
DWIDTH 5 0
BBX 5 11 0 -2
BITMAP
00
00
00
38
20
38
20
20
20
20
20
ENDCHAR
STARTCHAR BOX DRAWINGS DOWN DOUBLE AND RIGHT SINGLE
ENCODING 9555
SWIDTH 480 0
DWIDTH 5 0
BBX 5 11 0 -2
BITMAP
00
00
00
00
78
50
50
50
50
50
50
ENDCHAR
STARTCHAR BOX DRAWINGS DOUBLE DOWN AND RIGHT
ENCODING 9556
SWIDTH 480 0
DWIDTH 5 0
BBX 5 11 0 -2
BITMAP
00
00
00
78
40
58
50
50
50
50
50
ENDCHAR
STARTCHAR BOX DRAWINGS DOWN SINGLE AND LEFT DOUBLE
ENCODING 9557
SWIDTH 480 0
DWIDTH 5 0
BBX 5 11 0 -2
BITMAP
00
00
00
E0
20
E0
20
20
20
20
20
ENDCHAR
STARTCHAR BOX DRAWINGS DOWN DOUBLE AND LEFT SINGLE
ENCODING 9558
SWIDTH 480 0
DWIDTH 5 0
BBX 5 11 0 -2
BITMAP
00
00
00
00
F0
50
50
50
50
50
50
ENDCHAR
STARTCHAR BOX DRAWINGS DOUBLE DOWN AND LEFT
ENCODING 9559
SWIDTH 480 0
DWIDTH 5 0
BBX 5 11 0 -2
BITMAP
00
00
00
F0
10
D0
50
50
50
50
50
ENDCHAR
STARTCHAR BOX DRAWINGS UP SINGLE AND RIGHT DOUBLE
ENCODING 9560
SWIDTH 480 0
DWIDTH 5 0
BBX 5 11 0 -2
BITMAP
20
20
20
38
20
38
00
00
00
00
00
ENDCHAR
STARTCHAR BOX DRAWINGS UP DOUBLE AND RIGHT SINGLE
ENCODING 9561
SWIDTH 480 0
DWIDTH 5 0
BBX 5 11 0 -2
BITMAP
50
50
50
50
78
00
00
00
00
00
00
ENDCHAR
STARTCHAR BOX DRAWINGS DOUBLE UP AND RIGHT
ENCODING 9562
SWIDTH 480 0
DWIDTH 5 0
BBX 5 11 0 -2
BITMAP
50
50
50
58
40
78
00
00
00
00
00
ENDCHAR
STARTCHAR BOX DRAWINGS UP SINGLE AND LEFT DOUBLE
ENCODING 9563
SWIDTH 480 0
DWIDTH 5 0
BBX 5 11 0 -2
BITMAP
20
20
20
E0
20
E0
00
00
00
00
00
ENDCHAR
STARTCHAR BOX DRAWINGS UP DOUBLE AND LEFT SINGLE
ENCODING 9564
SWIDTH 480 0
DWIDTH 5 0
BBX 5 11 0 -2
BITMAP
50
50
50
50
F0
00
00
00
00
00
00
ENDCHAR
STARTCHAR BOX DRAWINGS DOUBLE UP AND LEFT
ENCODING 9565
SWIDTH 480 0
DWIDTH 5 0
BBX 5 11 0 -2
BITMAP
50
50
50
D0
10
F0
00
00
00
00
00
ENDCHAR
STARTCHAR BOX DRAWINGS VERTICAL SINGLE AND RIGHT DOUBLE
ENCODING 9566
SWIDTH 480 0
DWIDTH 5 0
BBX 5 11 0 -2
BITMAP
20
20
20
38
20
38
20
20
20
20
20
ENDCHAR
STARTCHAR BOX DRAWINGS VERTICAL DOUBLE AND RIGHT SINGLE
ENCODING 9567
SWIDTH 480 0
DWIDTH 5 0
BBX 5 11 0 -2
BITMAP
50
50
50
50
58
50
50
50
50
50
50
ENDCHAR
STARTCHAR BOX DRAWINGS DOUBLE VERTICAL AND RIGHT
ENCODING 9568
SWIDTH 480 0
DWIDTH 5 0
BBX 5 11 0 -2
BITMAP
50
50
50
58
40
58
50
50
50
50
50
ENDCHAR
STARTCHAR BOX DRAWINGS VERTICAL SINGLE AND LEFT DOUBLE
ENCODING 9569
SWIDTH 480 0
DWIDTH 5 0
BBX 5 11 0 -2
BITMAP
20
20
20
20
E0
20
E0
20
20
20
20
ENDCHAR
STARTCHAR BOX DRAWINGS VERTICAL DOUBLE AND LEFT SINGLE
ENCODING 9570
SWIDTH 480 0
DWIDTH 5 0
BBX 5 11 0 -2
BITMAP
50
50
50
50
D0
50
50
50
50
50
50
ENDCHAR
STARTCHAR BOX DRAWINGS DOUBLE VERTICAL AND LEFT
ENCODING 9571
SWIDTH 480 0
DWIDTH 5 0
BBX 5 11 0 -2
BITMAP
50
50
50
D0
10
D0
50
50
50
50
50
ENDCHAR
STARTCHAR BOX DRAWINGS DOWN SINGLE AND HORIZONTAL DOUBLE
ENCODING 9572
SWIDTH 480 0
DWIDTH 5 0
BBX 5 11 0 -2
BITMAP
00
00
00
F8
00
F8
20
20
20
20
20
ENDCHAR
STARTCHAR BOX DRAWINGS DOWN DOUBLE AND HORIZONTAL SINGLE
ENCODING 9573
SWIDTH 480 0
DWIDTH 5 0
BBX 5 11 0 -2
BITMAP
00
00
00
00
F8
50
50
50
50
50
50
ENDCHAR
STARTCHAR BOX DRAWINGS DOUBLE DOWN AND HORIZONTAL
ENCODING 9574
SWIDTH 480 0
DWIDTH 5 0
BBX 5 11 0 -2
BITMAP
00
00
00
F8
00
D8
50
50
50
50
50
ENDCHAR
STARTCHAR BOX DRAWINGS UP SINGLE AND HORIZONTAL DOUBLE
ENCODING 9575
SWIDTH 480 0
DWIDTH 5 0
BBX 5 11 0 -2
BITMAP
20
20
20
F8
00
F8
00
00
00
00
00
ENDCHAR
STARTCHAR BOX DRAWINGS UP DOUBLE AND HORIZONTAL SINGLE
ENCODING 9576
SWIDTH 480 0
DWIDTH 5 0
BBX 5 11 0 -2
BITMAP
50
50
50
50
F8
00
00
00
00
00
00
ENDCHAR
STARTCHAR BOX DRAWINGS DOUBLE UP AND HORIZONTAL
ENCODING 9577
SWIDTH 480 0
DWIDTH 5 0
BBX 5 11 0 -2
BITMAP
50
50
50
D8
00
F8
00
00
00
00
00
ENDCHAR
STARTCHAR BOX DRAWINGS VERTICAL SINGLE AND HORIZONTAL DOUBLE
ENCODING 9578
SWIDTH 480 0
DWIDTH 5 0
BBX 5 11 0 -2
BITMAP
20
20
20
F8
00
F8
20
20
20
20
20
ENDCHAR
STARTCHAR BOX DRAWINGS VERTICAL DOUBLE AND HORIZONTAL SINGLE
ENCODING 9579
SWIDTH 480 0
DWIDTH 5 0
BBX 5 11 0 -2
BITMAP
50
50
50
50
D8
50
50
50
50
50
50
ENDCHAR
STARTCHAR BOX DRAWINGS DOUBLE VERTICAL AND HORIZONTAL
ENCODING 9580
SWIDTH 480 0
DWIDTH 5 0
BBX 5 11 0 -2
BITMAP
00
00
00
00
18
20
20
20
20
20
20
ENDCHAR
STARTCHAR BOX DRAWINGS LIGHT ARC DOWN AND RIGHT
ENCODING 9581
SWIDTH 480 0
DWIDTH 5 0
BBX 5 11 0 -2
BITMAP
00
00
00
00
C0
20
20
20
20
20
20
ENDCHAR
STARTCHAR BOX DRAWINGS LIGHT ARC DOWN AND LEFT
ENCODING 9582
SWIDTH 480 0
DWIDTH 5 0
BBX 5 11 0 -2
BITMAP
20
20
20
20
C0
00
00
00
00
00
00
ENDCHAR
STARTCHAR BOX DRAWINGS LIGHT ARC UP AND LEFT
ENCODING 9583
SWIDTH 480 0
DWIDTH 5 0
BBX 5 11 0 -2
BITMAP
20
20
20
20
18
00
00
00
00
00
00
ENDCHAR
STARTCHAR BOX DRAWINGS LIGHT ARC UP AND RIGHT
ENCODING 9584
SWIDTH 480 0
DWIDTH 5 0
BBX 5 11 0 -2
BITMAP
20
20
20
20
18
00
00
00
00
00
00
ENDCHAR
STARTCHAR BOX DRAWINGS LIGHT DIAGONAL UPPER RIGHT TO LOWER LEFT
ENCODING 9585
SWIDTH 480 0
DWIDTH 5 0
BBX 5 11 0 -2
BITMAP
08
08
10
10
20
20
20
40
40
80
80
ENDCHAR
STARTCHAR BOX DRAWINGS LIGHT DIAGONAL UPPER LEFT TO LOWER RIGHT
ENCODING 9586
SWIDTH 480 0
DWIDTH 5 0
BBX 5 11 0 -2
BITMAP
80
80
40
40
20
20
20
10
10
08
08
ENDCHAR
STARTCHAR BOX DRAWINGS LIGHT DIAGONAL CROSS
ENCODING 9587
SWIDTH 480 0
DWIDTH 5 0
BBX 5 11 0 -2
BITMAP
88
88
50
50
20
20
20
50
50
88
88
ENDCHAR
STARTCHAR BOX DRAWINGS LIGHT LEFT
ENCODING 9588
SWIDTH 480 0
DWIDTH 5 0
BBX 5 11 0 -2
BITMAP
00
00
00
00
E0
00
00
00
00
00
00
ENDCHAR
STARTCHAR BOX DRAWINGS LIGHT UP
ENCODING 9589
SWIDTH 480 0
DWIDTH 5 0
BBX 5 11 0 -2
BITMAP
20
20
20
20
20
00
00
00
00
00
00
ENDCHAR
STARTCHAR BOX DRAWINGS LIGHT RIGHT
ENCODING 9590
SWIDTH 480 0
DWIDTH 5 0
BBX 5 11 0 -2
BITMAP
00
00
00
00
38
00
00
00
00
00
00
ENDCHAR
STARTCHAR BOX DRAWINGS LIGHT DOWN
ENCODING 9591
SWIDTH 480 0
DWIDTH 5 0
BBX 5 11 0 -2
BITMAP
00
00
00
00
20
20
20
20
20
20
20
ENDCHAR
STARTCHAR BOX DRAWINGS HEAVY LEFT
ENCODING 9592
SWIDTH 480 0
DWIDTH 5 0
BBX 5 11 0 -2
BITMAP
00
00
00
00
E0
E0
00
00
00
00
00
ENDCHAR
STARTCHAR BOX DRAWINGS HEAVY UP
ENCODING 9593
SWIDTH 480 0
DWIDTH 5 0
BBX 5 11 0 -2
BITMAP
30
30
30
30
30
30
00
00
00
00
00
ENDCHAR
STARTCHAR BOX DRAWINGS HEAVY RIGHT
ENCODING 9594
SWIDTH 480 0
DWIDTH 5 0
BBX 5 11 0 -2
BITMAP
00
00
00
00
38
38
00
00
00
00
00
ENDCHAR
STARTCHAR BOX DRAWINGS HEAVY DOWN
ENCODING 9595
SWIDTH 480 0
DWIDTH 5 0
BBX 5 11 0 -2
BITMAP
00
00
00
00
30
30
30
30
30
30
30
ENDCHAR
STARTCHAR BOX DRAWINGS LIGHT LEFT AND HEAVY RIGHT
ENCODING 9596
SWIDTH 480 0
DWIDTH 5 0
BBX 5 11 0 -2
BITMAP
00
00
00
00
F8
38
00
00
00
00
00
ENDCHAR
STARTCHAR BOX DRAWINGS LIGHT UP AND HEAVY DOWN
ENCODING 9597
SWIDTH 480 0
DWIDTH 5 0
BBX 5 11 0 -2
BITMAP
20
20
20
20
30
30
30
30
30
30
30
ENDCHAR
STARTCHAR BOX DRAWINGS HEAVY LEFT AND LIGHT RIGHT
ENCODING 9598
SWIDTH 480 0
DWIDTH 5 0
BBX 5 11 0 -2
BITMAP
00
00
00
00
F8
E0
00
00
00
00
00
ENDCHAR
STARTCHAR BOX DRAWINGS HEAVY UP AND LIGHT DOWN
ENCODING 9599
SWIDTH 480 0
DWIDTH 5 0
BBX 5 11 0 -2
BITMAP
30
30
30
30
30
30
20
20
20
20
20
ENDCHAR
ENDFONT
